<svg xmlns="http://www.w3.org/2000/svg" id="Layer_2" data-name="Layer 2" viewBox="0 0 1193 188"><defs><radialGradient id="radial-gradient" cx="1146" cy="-292.2" r="878" fx="1146" fy="-292.2" gradientTransform="matrix(-1 0 0 -.06 2339 169)" gradientUnits="userSpaceOnUse"><stop offset="0" stop-color="#ffbfbf"/><stop offset="1" stop-color="#fff"/></radialGradient><linearGradient id="linear-gradient" x1="346.8" x2="59.9" y1="-470.4" y2="-357.6" gradientTransform="translate(47 478)" gradientUnits="userSpaceOnUse"><stop offset="0" stop-color="#0080ff"/><stop offset="1" stop-color="#0ff"/></linearGradient><style>.cls-1{fill:#0ff}.cls-2{fill:#fff}.cls-3{fill:url(#radial-gradient)}.cls-6{fill:url(#linear-gradient)}</style></defs><g id="Layer_1-2" data-name="Layer 1"><path fill="rgba(191,191,255,.13)" d="M256 43 116 2a28 28 0 0 0-36 32l23 129a28 28 0 0 0 33 23l12-5 117-87c9-7 13-17 11-28s-9-19-20-23Zm3 42-118 87a17 17 0 0 1-17 2c-5-2-9-7-10-13L91 32c-1-6 1-12 6-16 4-4 10-5 16-4l140 42a17 17 0 0 1 5 31Zm-7-29L113 15a15 15 0 0 0-15 3c-4 4-6 9-5 14l23 128c1 6 4 10 9 12s11 1 15-2l117-87c5-4 7-9 6-15s-5-10-11-12Zm-2 18-117 87-4 1-2-4-23-128 2-4 2-1h1l140 42 3 3c0 1 0 3-2 4Z"/><g id="Logos-_-F1-logo-red" data-name="Logos-/-F1-logo-red"><g id="Fill-1"><path id="path-1" fill="#e00" fill-rule="evenodd" d="m228 186 76-76h-46l-76 76h46Zm-11-43h-92c-28 0-33 2-45 14l-29 29h40l9-9c6-6 9-7 23-7h68l26-27Zm-138 8-36 35H0l53-53c20-18 30-23 66-23h131l-28 29H122c-26 0-31 1-43 12Z"/></g></g><path d="m380 110-12 37-9-25a24 24 0 0 0-6-10l-2-2-9-2a15 15 0 0 0-10 4c-3 2-5 5-7 10l-8 25-11-31-21 22 13 33 1 4 6 9c3 2 6 4 10 4 5 0 8-2 11-4l6-11 10-27 10 27 7 11c2 2 6 4 10 4s7-2 10-4l6-9 25-65h-30Zm77 19c-3-7-6-12-10-15s-9-5-15-5-10 2-14 5-8 8-10 15l-23 57h27l6-16h27l6 16h28l-22-57Zm-30 18 5-13 5 13h-10Zm34-37v24h28v52h27v-52h27v-24h-82Zm115 27c3-2 7-3 12-3h25v-24h-31a40 40 0 0 0-28 11 37 37 0 0 0-9 42 38 38 0 0 0 21 20c5 2 10 3 16 3h31v-23h-25c-5 0-9-1-12-4-4-2-5-6-5-11s1-8 5-11Zm96-27v26h-28v-26h-27v76h27v-26h28v26h26v-76h-26Zm101 19c-3-7-6-12-10-15s-9-5-15-5-10 2-14 5-8 8-10 15l-23 57h27l6-16h27l7 16h27l-22-57Zm-30 18 5-13 5 13h-10Zm81 16v-53h-26v76h67v-23h-41Z" class="cls-2"/><path d="M943 132a39 39 0 0 0-22-20 44 44 0 0 0-32 0c-5 2-9 4-13 8a39 39 0 0 0 13 65 44 44 0 0 0 32 0 40 40 0 0 0 22-21c3-5 4-10 4-16s-1-11-4-16Zm-27 27c-3 3-6 5-11 5s-8-2-11-5-4-6-4-11 1-8 4-11 7-4 11-4 8 1 11 4 5 7 5 11-2 8-5 11Zm95-49v39l-26-30c-3-3-5-6-8-7-3-2-6-3-10-3l-6 2a16 16 0 0 0-10 9l-1 8v58h26v-38l24 27 10 9c3 2 7 4 12 4l5-1 5-3 4-5 1-7v-62h-26Zm62 27c3-2 8-3 13-3h32v-24h-36c-6 0-12 1-17 3l-13 8a36 36 0 0 0-12 27 36 36 0 0 0 12 27c3 4 8 6 13 8s11 3 17 3h36v-49h-26v26h-6c-5 0-10-1-13-4-3-2-5-6-5-11s2-8 5-11Zm118 13-5-7c-3-2-6-4-9-4l-11-2h-18v-3h44v-24h-46a27 27 0 0 0-18 7 24 24 0 0 0-8 17 25 25 0 0 0 8 19l8 5 10 2h22v3h-47v23h43c9 0 16-2 21-7 6-4 8-10 8-18 0-4 0-8-2-11Z" class="cls-2"/><path d="m380 110-12 37-9-25a24 24 0 0 0-6-10l-2-2-9-2a15 15 0 0 0-10 4c-3 2-5 5-7 10l-8 25-11-31-21 22 13 33 1 4 6 9c3 2 6 4 10 4 5 0 8-2 11-4l6-11 10-27 10 27 7 11c2 2 6 4 10 4s7-2 10-4l6-9 25-65h-30Zm77 19c-3-7-6-12-10-15s-9-5-15-5-10 2-14 5-8 8-10 15l-23 57h27l6-16h27l6 16h28l-22-57Zm-30 18 5-13 5 13h-10Zm34-37v24h28v52h27v-52h27v-24h-82Zm115 27c3-2 7-3 12-3h25v-24h-31a40 40 0 0 0-28 11 37 37 0 0 0-9 42 38 38 0 0 0 21 20c5 2 10 3 16 3h31v-23h-25c-5 0-9-1-12-4-4-2-5-6-5-11s1-8 5-11Zm96-27v26h-28v-26h-27v76h27v-26h28v26h26v-76h-26Zm101 19c-3-7-6-12-10-15s-9-5-15-5-10 2-14 5-8 8-10 15l-23 57h27l6-16h27l7 16h27l-22-57Zm-30 18 5-13 5 13h-10Zm81 16v-53h-26v76h67v-23h-41Z" class="cls-3"/><path d="M943 132a39 39 0 0 0-22-20 44 44 0 0 0-32 0c-5 2-9 4-13 8a39 39 0 0 0 13 65 44 44 0 0 0 32 0 40 40 0 0 0 22-21c3-5 4-10 4-16s-1-11-4-16Zm-27 27c-3 3-6 5-11 5s-8-2-11-5-4-6-4-11 1-8 4-11 7-4 11-4 8 1 11 4 5 7 5 11-2 8-5 11Zm95-49v39l-26-30c-3-3-5-6-8-7-3-2-6-3-10-3l-6 2a16 16 0 0 0-10 9l-1 8v58h26v-38l24 27 10 9c3 2 7 4 12 4l5-1 5-3 4-5 1-7v-62h-26Zm62 27c3-2 8-3 13-3h32v-24h-36c-6 0-12 1-17 3l-13 8a36 36 0 0 0-12 27 36 36 0 0 0 12 27c3 4 8 6 13 8s11 3 17 3h36v-49h-26v26h-6c-5 0-10-1-13-4-3-2-5-6-5-11s2-8 5-11Zm118 13-5-7c-3-2-6-4-9-4l-11-2h-18v-3h44v-24h-46a27 27 0 0 0-18 7 24 24 0 0 0-8 17 25 25 0 0 0 8 19l8 5 10 2h22v3h-47v23h43c9 0 16-2 21-7 6-4 8-10 8-18 0-4 0-8-2-11Z" class="cls-3"/><path fill="#80ffff" d="M551 76h15l3 4 1 1v7l-1 1-3 3-1 1h-11v10h-3V76Zm12 13 3-3v-4l-3-2h-9v9h9Zm16-13h15l4 4v9l-4 3-1 1h-2l7 6v4h-4v-2l-7-7v-1h-4v10h-4V76Zm13 13 2-3v-4l-2-2h-9v9h9Zm15-13h19v4h-15v8h11v3h-11v8h15v4h-19V76Zm29 0h13l5 6h1v15h-1l-5 6h-13V76Zm11 23 4-4V84l-4-4h-8v19h8Zm17 0h7V80h-7v-4h19v4h-8v19h8v4h-19v-4Zm32 4-4-4V80l4-4h11l4 4v6h-4v-4l-2-2h-7l-2 2v15l2 2h7l2-2v-4h4v6l-4 4h-11Zm32-23h-8v-4h19v4h-7v23h-4V80Zm21 19h7V80h-7v-4h19v4h-8v19h8v4h-19v-4Zm32 4-4-4V80l4-4h11l4 4v19l-4 4h-11Zm2-4h7l2-2V82l-2-2h-7l-2 2v15l2 2Zm22-23h4v7h2l10 9V76h3v27h-3v-7h-2l-10-9v16h-4V76Zm61 27-4-4V80l4-4h11l4 4v6h-4v-4l-2-2h-7l-2 2v15l2 2h7l2-2v-4h4v6l-4 4h-11Zm24-27h4v12h11V76h4v27h-4V91h-11v12h-4V76Zm29 9 7-7v-2h4v2l7 7 1 1v17h-4v-8h-12v8h-3V85Zm15 6v-3l-6-6-6 6v3h12Zm13-15h4v7h2l3 3 4-3h2v-7h4v27h-4V86l-4 5h-3l-4-5v17h-4V76Zm28 0h15l4 4v9l-4 3v1h-11v10h-4V76Zm13 13 2-3v-4l-2-2h-9v9h9Zm16 10h7V80h-7v-4h19v4h-8v19h8v4h-19v-4Zm32 4-4-4V80l4-4h11l4 4v19l-4 4h-11Zm2-4h7l2-2V82l-2-2h-7l-2 2v15l2 2Zm22-23h4v7h2l9 9V76h4v27h-4v-7h-2l-9-9v16h-4V76Zm32 27-3-4-1-1v-5h4v4l3 2h6l3-2v-3l-3-3h-9l-3-4h-1v-6l1-1 3-4h11l4 4v6h-3v-4l-3-2h-6l-3 2v3l3 3h9l3 4v7l-3 4h-12Zm25-27h4v12h11V76h4v27h-4V91h-11v12h-4V76Zm28 23h8V80h-8v-4h19v4h-8v19h8v4h-19v-4Zm28-23h15l4 4v9l-4 3v1h-11v10h-4V76Zm13 13 3-3v-4l-3-2h-9v9h9Z"/><path d="M147 77v1l5-1h4l-7-1c6 0 9 0 11 2v3h-13v2l-1 2-3 25-1 8-1 7v3l-2 8c-2 1-6 0-8-1v-6h1l1 2 2-6 4-29 2-14-5 1-9 1-8 2-2 20v-5l-1 3v1l-1 4v-3 11h-1c-2-3-3-9-2-17l1-12c-6 1-11 3-17 6-1-1 0-4 2-5v1-1l2-1-2 2 3-2h-1l2-1v1h-1a191 191 0 0 0 12-5l2-11 2-11 1-4v-3l3-13 2-6 2-1 4 2v2l-2 6-4 18-1 5-3 15 7-1 9-2h6l1-2v-1l1-8v-3c1 0 1 0 0 0l1-2v-4h1v-1h-1l1-1v-3l1-4v-3h1l1-3-1-1 1-1v-4h1v-3l1-4v-1l2-3v-5a503 503 0 0 0 5-8v1l3-1h1l1 5h-2a293 293 0 0 0-3 10l-1 1-1 7-3 11-2 14-2 14 1 1h-2ZM98 89Zm1 1 1-1-1 1Zm0 2Zm2-2-2 2 2-2Zm-1 1h-1 1Zm0-1 2-1-2 1Zm1-3Zm5 0 7-2c-4 0-8 2-12 4l5-2Zm-4 0Zm1 3v-1l-1 1h1Zm-1-1Zm1-2h-1 1Zm0 2Zm2-1-1 1-1 1 1-1h1-1l2-1 2-1v1h-3v1-1Zm-2-1v-1h1l-1 1Zm1-1Zm1 3Zm1-4-1 1 1-1Zm0 1h-1 1Zm0 0 1-1-1 1Zm2-1h1-1Zm0 3 1-1 2-1 1 1v-1h1l-4 1-1 1Zm2-4Zm0 3Zm1-3Zm2 27 1-12v-8l1-2h-1l1-2h-1c-1 9-2 17-1 24Zm0 1v-1 1Zm2-7v-2 1h-1v1l1-1v1Zm0 0h-1v1l1-1Zm0-20 1-1h-1v1Zm0 1v-1 1Zm6-36-2 7h1l-1 4-1 3-2 9v1-1l-1 10h1a229 229 0 0 0 3-17l1-10h1v-6l1-1v1h-1Zm-6 52v1-1Zm0 3Zm0-4v1-1Zm0-2v1-1Zm1 11v1l-1-1h1Zm0-17Zm0-3v2-2Zm0 11Zm0-13 1-1h-1v1Zm1-22v1-1Zm0 16v-1 1Zm0 0h1-1Zm2-12Zm0 13 6-1h1l4-1h4l2-1 5-1-10 1-9 2-3 1Zm1 1v1-1h-1v1h1l2-1-1-1v1h-1Zm2 0h1s0-1 0 0h1v-1h-2v1Zm1-4Zm0 0h1-1Zm1 3v1-1Zm3 0h1v-1h3l-7 1h3Zm1-4h1-1Zm2 0Zm0 0Zm1 0Zm1 2-1 1 1-1Zm-1-2Zm1-1h1l-1 1v-1Zm2 3-2 1 2-1Zm0-3v1h-1l1-1Zm-1 3Zm2-3Zm4 2-4 1h3l1-1Zm-3-2Zm1 0 2-1-1 1h-1Zm2 33v1-1Zm0-2v2-2Zm0-29h1-1Zm1 25h-1v3l1-3Zm-1-27 1-1-1 1Zm2 8v11l-1 8 1-11 1-6 1-6-1 5-1-1Zm1 1h-1 1Zm1-9h-1 2v-1h-1v1Zm9-47c-1 2-2 3-1 4h-1l-1 6-1 6-2 12-2 9-1 8v1l1-3h1v-5 1-4h1l-1-1 1-1 1-4v-4l1-6v-2l1-1 1-5 1-5v-1l1-2v-2l2-9 2-5-4 11v2Zm-9 48c1 0 1 0 0 0Zm2-21Zm1 11Zm1-24v1-1Zm2 33-2 1 2-1c0 1 1 0 0 0Zm-1-22Zm0-17h1-1Zm8-22v-1 2-1Zm43 64h2v2l-5 3v-1h-1l-1 1h1c1 1-1 0-1 1h-1v1-1l-2 1-1 1v-1h-1v1h-1v1h-1v-1h-2v1l-6 1-1 2-4 7c-1 1-4 3-7 3-8-1-7-15-2-19v-2c1-9 13-8 16-2v7l18-6Zm-34 12v6c3 0 5-2 6-3l2-3v-1l-6-3-2 3Zm7-12c-1 0-2 2-1 4l-2 2 6 1c2-3 3-7 1-10l-4 3Zm9 9v1-1Zm1 0h1-1Zm1-2v1-1Zm2 0Zm0 0Zm3 0h-3 3Zm4-1-2-1-2 1h4Zm0-1h1-1Zm2 0h-1v1l1-1Zm0 0v-1 1Z" class="cls-1"/><path d="m202 104 1 1 8-4 3-3 3-2 18-16h1v-1h1c-1 1-4 4-4 6-2 0-3 1-5 3 0 1 0 0 0 0v1l-1 1-2 1-2 1h1-1v1h-1l-2 3v-1 1l-2 2 1-1 3-2-2 3 4-4-7 7h1v1h-1 1c-4 4-8 6-12 6-6-1-11-6-11-14V83c1 0 2-2 2-5l1-4v1-2c3-16 8-33 15-50l3-6 4-6c1-3 5-8 9-11 8 1 7 11 5 17l-3 10-7 19-5 10-4 9-1 1v1l-3 6-4 8-5 5-2 5c0 4-1 9 1 13Zm-7-10v1-1Zm1-2v-1 1Zm0 0Zm1 5Zm2-29h1-1Zm1-1h-1l1 1v-1Zm1 35v-1 1Zm0 2v-1l1 1h-1Zm1-47v-1 1Zm25-52v1l-2 2-1 1h1l-4 4c1 2-1 2-1 3v2h-1v4h-1v1c-1 2-4 8-4 11l-2 4-2 5c-1 0 0 0 0 0l-1 4-2 6v1l-1 1c0 4 0 6-2 8l1 2-1 2v-1l-2 10 8-14 8-18 6-13 2-7 3-8 1-7 1-5c-2-1-3 1-4 2V5Zm-24 49v-1 2-1Zm1-3-1 1 1-1Zm0-2v2-2Zm0-1h1-1Zm0 9h1-1Zm2-12-1 3 1-3Zm-1 11Zm1-12Zm1-1-1-1v1h1Zm0-3v2-2Zm1 4h-1 1Zm-1-5h1-1Zm1-1v1-1Zm0 5v-1 1Zm0-1v-1 1Zm2-10-1 2-1 3 2-5Zm-2 15h1-1Zm4 57-2 1 2-1Zm11-66h-1v2h-1v1l-1 3v1l-1 1-1 1h1c-1 2-4 5-3 7v-1l-3 5-3 5v2-1l2-1 1-4h1v1l1-1v-1 1-2h1l-1-1 1 1v-2 1l3-5 2-5 1-1v-1h-1l1-1 1-1v-1h-1 1l1-3-1 1v-2l1 1v-1 1l1-2h-1v-1l1 1 1-3h-1l1-1v1h1v-2h-1l1-1v1l1-2h-1l1-1c-1 0 0-1 0 0v-2 1l1-2-1-1v3l-1 1-2 4v1h-1v2h-1v3Zm-2-28-11 21 11-21Zm-8 50v2-2Zm0 0h1-1Zm1 1-1 1 1-1Zm0 43-1 1 1-1Zm0-45v-1 1Zm0 1Zm1 40Zm1 3s1 0 0 0Zm0-1s1 0 0 0c0-1 0 0 0 0Zm0-3 2-1-2 1Zm1-78v1-1Zm0 32v1-1Zm0-33h1-1Zm1 30Zm0 52Zm0-84 1-1h-1v1Zm7 77a172 172 0 0 0-4 4l-2 3-1-1v-1h1l11-9-5 4Zm-6-47Zm0 1Zm0 49v1-1Zm1-51-1-1 1 1Zm-1 0h1-1Zm1 52v1-1Zm1-55v-1 1Zm1-2h-1 1Zm0 57h-1l1-1v1Zm-1-57 1-1-1 1Zm1 53Zm1-55h-1 1Zm-1 55h1-1Zm1-55-1-1 1 1Zm-1 58 1-1-1 1Zm2-88-1 1 1-1Zm-1 84v1-1Zm1 0v-1 1Zm0-1Zm0 0 1 1h-1v-1Zm1-1v1-1Zm0-59Zm1 60h-1 1Zm-1-59Zm0-2h1-1Zm0 61 1-1v1h-1Zm1-61Zm2 59-1 1h-1 1v-1h1Zm-1-59Zm0-3c0 1 0 0 0 0Zm0 61h1-1Zm3-1-2 2h-1l1-1h1-1 1v-1h1Zm-2 0v1-1Zm0-61Zm1-4v-1l1-1h-1l-1 2h1Zm0 65v-1 1Zm0-68 1 1-1-1Zm0 68h1-1Zm1-68h-1 1Zm-1 67h1-1Zm0-64h1-1Zm1-4c-1 0 0 0 0 0l1-1h-1v1c0-1 0 0 0 0Zm0 1v2-2Zm1-3-1-1 1 1Zm0-2v1l1-2h-1v1Zm0 73Zm0-69Zm0-4v-1 1Zm0 73v-1 1Zm0-3h1-1Zm1-1v1h-1l1-1Zm0-73v1-1Zm0 4v-1 1Zm1-6h-1v2l1-4v2Zm0 73h-1v1l1-1Zm0-75V7v1Zm0 77 1-2-1 2Zm2-3v1l1-2-1 1Z" class="cls-1"/><path d="M268 81h1l1 2-5 3h-1v-1c0 1 0 1 0 0l-1 1h1c1 1-1 0-1 1h-1v1-1c-2 1-2 2-3 1v1-1h-1v1h-2l1 1h-1v-1h-2v1l-6 1-1 2-4 7c-2 1-4 3-7 3-8-1-7-15-2-19v-2c0-9 12-8 16-2 1 2 1 5-1 7 7-1 13-3 19-6Zm-34 12-1 1 1 5 6-3 1-3 1-1-6-3-2 3Zm7-12-2 4-1 2 6 1c2-3 3-7 0-10l-3 3Zm9 9h-1v1l1-1Zm1 0h1-1Zm0-2 1 1-1-1Zm2 0h1-1Zm0 0Zm3 0h-2 2Zm5-1-3-1-1 1h4Zm0-1Zm1 0v1-1Zm1 0v-1 1c-1 0 0 0 0 0Z" class="cls-1"/><path d="M273 100h1l-3 1 4-1c-2 2-6 4-9 3l-4-3-1-6c0-5 2-10 6-15 4-4 8-6 13-5l2 2v5c-2 0-3-3-4-4-8 6-13 12-13 20l1 2c5-1 8-4 12-7l5-4c1 2-3 5-4 7l-2 2-3 3h-1Zm-5 2Zm6-3h1-1Zm1 1 1-1-1 1Zm4-5h-1Zm1-1-1 1v-1Zm0-1Zm1-1v1-1Zm43-11h1v2l-5 3v-1h-1v1c2 1 0 0 0 1h-1l-1 1v-1l-2 1v1l-1-1h-1v1h1-2l1 1h-1v-1h-2s0 1 0 0v1l-6 1-2 2-4 7c-1 1-3 3-6 3-8-1-8-15-2-19v-2c0-9 12-8 15-2 2 2 2 5 0 7l19-6Zm-34 12-1 1 1 5c2 0 4-2 5-3l2-3 1-1-7-3-1 3Zm6-12-1 4-2 2 7 1c1-3 3-7 0-10l-4 3Zm9 9v1l1-1h-1Zm2 0h1-1Zm0-2 1 1-1-1Zm2 0h1-1Zm0 0Zm3 0h-2 2Zm5-1-3-1-1 1h4Zm-1-1h1-1Zm2 0h-1v1l1-1Zm0 0v-1 1Z" class="cls-1"/><path d="m348 76-5 3-5 3c0 2-1 2-2 3-5 7-9 12-10 16-1 3-2 4-4 5-3-1-4-5-4-8l1-5 1-5 1-5 1-4c4 0 4 3 4 5l-1 6 10-12c3-3 12-7 15-1l-2-1Zm-6 0v-1h1-2c-6 4-12 10-16 17 5-7 10-13 16-16h1Zm-6 7h-1 1Zm2-2h-1v1l1-1Zm1-2-1 1 1-1Zm3-1v-1l-3 2 3-2Zm2-1h-1 1Zm0 0 1-1h-1v1Z" class="cls-1"/><path d="M386 33h1l-1 1c1 1-2 4-1 5h-1 1l-2 2 1-1v2h-1v3h-1l1 1h-1l-1 1h1l-1 1-1 5-1 1h1-1c1 2 0 5-2 5v-1l-1 1h2l-1 2s-1 0 0 0v2l-2 2-1 2v3l-1 2v1l-1 1s1 0 0 0v2h-1v1h-1c1 1 0 2-1 3v2l-2 1v1l1 5 3 6v-1c1 2 4 2 5 1 6-1 13-5 16-8l9-8c-1 6-3 9-6 10h1l-1 1h1l-1 1c-1-1-1 1-1 1l-2 2c-1-1-3 2-4 2v1l-8 3h-3c-6 0-9-4-12-11l-8 10-6 3c-2 0-4-1-4-3l-1 1-1-4c0-6 1-11 4-16 3-4 7-6 11-4 1 3 0 6-2 8h-1v-5h-2l-3 9-2 9c3-1 6-4 7-6l6-8V69l1-6v-1h1c3-22 9-42 18-58h5c5 1 3 9 2 12v-1l-1 2h1l-1 2v3l-1 2h1l-1 1v2l-1 1-1 3h1l-1 1v1Zm-26 55h1-1Zm3-3-2 2 2-2Zm0 0v-1 1Zm1-16v1-1c1 0 1 0 0 0Zm1-1h-1 1Zm0 5c0 1 0 0 0 0Zm0-7v-2 2Zm0 4v-1 1Zm1-2-1 1 1-1Zm-1-5c1 0 1 0 0 0Zm1 9s-1 0 0 0Zm0-10Zm0 5Zm0 3v1-1Zm0-5v-1 1Zm0 1v-1 1Zm0 2v1-1Zm0 18v1-1Zm0-19h1-1Zm0 1v-1 1Zm0 20Zm1-20v-3l-1 6v3l1-6Zm-1-13h1-1Zm1 2h-1 1Zm-1 1v1-1Zm0 4h1-1Zm1 1v1-1Zm0 2v-1 1Zm0-10Zm0-4v2-2Zm1 6h-1 1Zm0 3-1 5 1-5Zm-1-10h1-1Zm0 10h1-1Zm1 9v1-1Zm0-22v1-1Zm1 3v1-1h-1 1Zm-1 7Zm1 15-1 2 1-2Zm0 6-1 1 1-1Zm0 14h-1 1Zm12-71-3 6h1l-2 3-1 4c0 2-1 5-3 7h1l-1 1v1l-3 12h1l-2 5v4h-1v5l3-8h1l1-1h-1v-1h1l1-3a168 168 0 0 1 6-16c-1-1 1-4 1-5v-1h1l2-12 3-11V9l-3 5-3 7Zm-12 31-1 1 1-1Zm0 2-1 6c1-2 2-4 1-6Zm-1 26h1-1Zm1-33-1 2 1-2Zm0 36Zm0-39s1 0 0 0Zm0 6v-1 1Zm0 22h1v-2l-1 2Zm0-20c1 0 1 0 0 0Zm1-6h-1 1Zm0 7v1-1Zm0-11-1 1 1-1Zm0 3Zm0 3Zm0-1Zm0-1Zm0 6Zm0 17v1-1Zm0-27s1 0 0 0Zm0 1Zm0 7h1-1Zm0 1h1-1Zm0 16v-1 1Zm0 7h1-1Zm1-30h-1 1Zm0 11h-1 1Zm0-6Zm0 16q0 1 0 0Zm0 3Zm0-22Zm0-5v2-2Zm0 33v1-1Zm0-1Zm0-26v1-1Zm0-2Zm0 22c-1 0 0 0 0 0Zm0 5c1 0 1 0 0 0Zm0-31h1l-1-1v1Zm1 2v-1 1Zm0 2Zm0 1v-1 1Zm0 20Zm0-32v1-1Zm0 37v1-1Zm0-1v1-1Zm1-33h-1v1l1-1Zm-1 1Zm1 1-1 1h1v-1Zm0 2-1 2 1-2Zm-1-9h1-1Zm0 3 1-1h-1v1Zm1 27v2-2Zm0 7v-1 1Zm0-31v1-1Zm1-9-1 1 1-1Zm-1 38 1 1-1-1Zm1-31v1-1Zm0 2-1 1 1-1Zm0 23-1 1 1-1Zm0 9h-1 1Zm0-12Zm0 2v1-1Zm0-28c1 0 1 0 0 0Zm0 4v1-1Zm0-2c1 0 1 0 0 0Zm1-7h-1 1Zm0 7-1 1 1-1Zm0 25h-1 1Zm-1 6h1l-1-1v1Zm1 2v-2 2Zm0-11v2-2Zm0 7v1-1Zm0-37v1-1Zm0 27v1-1Zm1-30c-1 0 0 0 0 0Zm0 32v1-1Zm0-25Zm0 32Zm0-33h1v-1h-1v1Zm1 22h-1 1Zm0 2-1 2 1-2v-1 1Zm0-25v-1 1Zm0-7v-1 1Zm0 27v2-2Zm0 15Zm0-38Zm1 32h-1 1Zm0-5-1-1v1h1Zm0-4v-1l-1 1h1Zm0-26v1-1Zm0 4Zm0 30Zm0 1v1-1Zm0-6v-1 1Zm0 1c0-1 0-1 0 0Zm0 3s1 0 0 0Zm0-5v-1l1 1h-1Zm1-3-1 2 1-2Zm0-3v1-1Zm-1 9 1 1-1-1Zm2-1v-1h-1l1 1Zm-1-9v1-1Zm1 3h-1 1Zm-1-3 1-1-1 1Zm1 6v1-1Zm0-5v1-1Zm0-4v2-2Zm0 12Zm0-4Zm1-6h-1v1l1 1v-2Zm-1-3h1-1Zm1 3 1-2h-1l1-1 1-5-1 5-1 3Zm1-9-1 5c0-1 2-3 1-5Zm-1 14v-1 1Zm1-5Zm1-2c-1 0 0 0 0 0Zm0-10v2-2Zm1 1-1 2 1-2Zm-1-1 1-3-1 3Zm1 8v1-1Zm0-4Zm0-1Zm0-7 1-1-1 1Zm1 4h-1 1Zm0-6v-1 1c-1 0 0 0 0 0Zm1 1-1 4 1-4Zm0-7v5-5Zm0 7v-3l1-1v1l-1 3Zm0 7Zm0-14h1-1Zm1 11-1 1 1-1Zm0-12v-1 1Zm0-3v2-2Zm0 5Zm0 11Zm0-4c1 0 1 0 0 0Zm1-17-1 5 1-5Zm-1 84h1-1Zm1-77v1c0 1-1 0 0 0v-1Zm0 9h-1 1Zm0-11v2-2Zm0-7Zm0 1Zm0 13Zm1 72h-1 1Zm-1-81 1 1-1-1Zm1-2Zm0 6Zm0-3h1-1Zm2 79c-1-1-2 0-2 1l2-1Zm0-2-1 1 1-1Zm1 0c0-1 0-1 0 0Zm1-1Zm2-1-1 1 1-1Zm2 0v1-1Zm2-5-1 1 1-1Zm-1 2s1 0 0 0Zm2-3-1 1 1-1Z" class="cls-1"/><path d="M147 77v1l5-1h4l-7-1c6 0 9 0 11 2v3h-13v2l-1 2-3 25-1 8-1 7v3l-2 8c-2 1-6 0-8-1v-6h1l1 2 2-6 4-29 2-14-5 1-9 1-8 2-2 20v-5l-1 3v1l-1 4v-3 11h-1c-2-3-3-9-2-17l1-12c-6 1-11 3-17 6-1-1 0-4 2-5v1-1l2-1-2 2 3-2h-1l2-1v1h-1a191 191 0 0 0 12-5l2-11 2-11 1-4v-3l3-13 2-6 2-1 4 2v2l-2 6-4 18-1 5-3 15 7-1 9-2h6l1-2v-1l1-8v-3c1 0 1 0 0 0l1-2v-4h1v-1h-1l1-1v-3l1-4v-3h1l1-3-1-1 1-1v-4h1v-3l1-4v-1l2-3v-5a503 503 0 0 0 5-8v1l3-1h1l1 5h-2a293 293 0 0 0-3 10l-1 1-1 7-3 11-2 14-2 14 1 1h-2ZM98 89Zm1 1 1-1-1 1Zm0 2Zm2-2-2 2 2-2Zm-1 1h-1 1Zm0-1 2-1-2 1Zm1-3Zm5 0 7-2c-4 0-8 2-12 4l5-2Zm-4 0Zm1 3v-1l-1 1h1Zm-1-1Zm1-2h-1 1Zm0 2Zm2-1-1 1-1 1 1-1h1-1l2-1 2-1v1h-3v1-1Zm-2-1v-1h1l-1 1Zm1-1Zm1 3Zm1-4-1 1 1-1Zm0 1h-1 1Zm0 0 1-1-1 1Zm2-1h1-1Zm0 3 1-1 2-1 1 1v-1h1l-4 1-1 1Zm2-4Zm0 3Zm1-3Zm2 27 1-12v-8l1-2h-1l1-2h-1c-1 9-2 17-1 24Zm0 1v-1 1Zm2-7v-2 1h-1v1l1-1v1Zm0 0h-1v1l1-1Zm0-20 1-1h-1v1Zm0 1v-1 1Zm6-36-2 7h1l-1 4-1 3-2 9v1-1l-1 10h1a229 229 0 0 0 3-17l1-10h1v-6l1-1v1h-1Zm-6 52v1-1Zm0 3Zm0-4v1-1Zm0-2v1-1Zm1 11v1l-1-1h1Zm0-17Zm0-3v2-2Zm0 11Zm0-13 1-1h-1v1Zm1-22v1-1Zm0 16v-1 1Zm0 0h1-1Zm2-12Zm0 13 6-1h1l4-1h4l2-1 5-1-10 1-9 2-3 1Zm1 1v1-1h-1v1h1l2-1-1-1v1h-1Zm2 0h1s0-1 0 0h1v-1h-2v1Zm1-4Zm0 0h1-1Zm1 3v1-1Zm3 0h1v-1h3l-7 1h3Zm1-4h1-1Zm2 0Zm0 0Zm1 0Zm1 2-1 1 1-1Zm-1-2Zm1-1h1l-1 1v-1Zm2 3-2 1 2-1Zm0-3v1h-1l1-1Zm-1 3Zm2-3Zm4 2-4 1h3l1-1Zm-3-2Zm1 0 2-1-1 1h-1Zm2 33v1-1Zm0-2v2-2Zm0-29h1-1Zm1 25h-1v3l1-3Zm-1-27 1-1-1 1Zm2 8v11l-1 8 1-11 1-6 1-6-1 5-1-1Zm1 1h-1 1Zm1-9h-1 2v-1h-1v1Zm9-47c-1 2-2 3-1 4h-1l-1 6-1 6-2 12-2 9-1 8v1l1-3h1v-5 1-4h1l-1-1 1-1 1-4v-4l1-6v-2l1-1 1-5 1-5v-1l1-2v-2l2-9 2-5-4 11v2Zm-9 48c1 0 1 0 0 0Zm2-21Zm1 11Zm1-24v1-1Zm2 33-2 1 2-1c0 1 1 0 0 0Zm-1-22Zm0-17h1-1Zm8-22v-1 2-1Zm43 64h2v2l-5 3v-1h-1l-1 1h1c1 1-1 0-1 1h-1v1-1l-2 1-1 1v-1h-1v1h-1v1h-1v-1h-2v1l-6 1-1 2-4 7c-1 1-4 3-7 3-8-1-7-15-2-19v-2c1-9 13-8 16-2v7l18-6Zm-34 12v6c3 0 5-2 6-3l2-3v-1l-6-3-2 3Zm7-12c-1 0-2 2-1 4l-2 2 6 1c2-3 3-7 1-10l-4 3Zm9 9v1-1Zm1 0h1-1Zm1-2v1-1Zm2 0Zm0 0Zm3 0h-3 3Zm4-1-2-1-2 1h4Zm0-1h1-1Zm2 0h-1v1l1-1Zm0 0v-1 1Z" class="cls-6"/><path d="m202 104 1 1 8-4 3-3 3-2 18-16h1v-1h1c-1 1-4 4-4 6-2 0-3 1-5 3 0 1 0 0 0 0v1l-1 1-2 1-2 1h1-1v1h-1l-2 3v-1 1l-2 2 1-1 3-2-2 3 4-4-7 7h1v1h-1 1c-4 4-8 6-12 6-6-1-11-6-11-14V83c1 0 2-2 2-5l1-4v1-2c3-16 8-33 15-50l3-6 4-6c1-3 5-8 9-11 8 1 7 11 5 17l-3 10-7 19-5 10-4 9-1 1v1l-3 6-4 8-5 5-2 5c0 4-1 9 1 13Zm-7-10v1-1Zm1-2v-1 1Zm0 0Zm1 5Zm2-29h1-1Zm1-1h-1l1 1v-1Zm1 35v-1 1Zm0 2v-1l1 1h-1Zm1-47v-1 1Zm25-52v1l-2 2-1 1h1l-4 4c1 2-1 2-1 3v2h-1v4h-1v1c-1 2-4 8-4 11l-2 4-2 5c-1 0 0 0 0 0l-1 4-2 6v1l-1 1c0 4 0 6-2 8l1 2-1 2v-1l-2 10 8-14 8-18 6-13 2-7 3-8 1-7 1-5c-2-1-3 1-4 2V5Zm-24 49v-1 2-1Zm1-3-1 1 1-1Zm0-2v2-2Zm0-1h1-1Zm0 9h1-1Zm2-12-1 3 1-3Zm-1 11Zm1-12Zm1-1-1-1v1h1Zm0-3v2-2Zm1 4h-1 1Zm-1-5h1-1Zm1-1v1-1Zm0 5v-1 1Zm0-1v-1 1Zm2-10-1 2-1 3 2-5Zm-2 15h1-1Zm4 57-2 1 2-1Zm11-66h-1v2h-1v1l-1 3v1l-1 1-1 1h1c-1 2-4 5-3 7v-1l-3 5-3 5v2-1l2-1 1-4h1v1l1-1v-1 1-2h1l-1-1 1 1v-2 1l3-5 2-5 1-1v-1h-1l1-1 1-1v-1h-1 1l1-3-1 1v-2l1 1v-1 1l1-2h-1v-1l1 1 1-3h-1l1-1v1h1v-2h-1l1-1v1l1-2h-1l1-1c-1 0 0-1 0 0v-2 1l1-2-1-1v3l-1 1-2 4v1h-1v2h-1v3Zm-2-28-11 21 11-21Zm-8 50v2-2Zm0 0h1-1Zm1 1-1 1 1-1Zm0 43-1 1 1-1Zm0-45v-1 1Zm0 1Zm1 40Zm1 3s1 0 0 0Zm0-1s1 0 0 0c0-1 0 0 0 0Zm0-3 2-1-2 1Zm1-78v1-1Zm0 32v1-1Zm0-33h1-1Zm1 30Zm0 52Zm0-84 1-1h-1v1Zm7 77a172 172 0 0 0-4 4l-2 3-1-1v-1h1l11-9-5 4Zm-6-47Zm0 1Zm0 49v1-1Zm1-51-1-1 1 1Zm-1 0h1-1Zm1 52v1-1Zm1-55v-1 1Zm1-2h-1 1Zm0 57h-1l1-1v1Zm-1-57 1-1-1 1Zm1 53Zm1-55h-1 1Zm-1 55h1-1Zm1-55-1-1 1 1Zm-1 58 1-1-1 1Zm2-88-1 1 1-1Zm-1 84v1-1Zm1 0v-1 1Zm0-1Zm0 0 1 1h-1v-1Zm1-1v1-1Zm0-59Zm1 60h-1 1Zm-1-59Zm0-2h1-1Zm0 61 1-1v1h-1Zm1-61Zm2 59-1 1h-1 1v-1h1Zm-1-59Zm0-3c0 1 0 0 0 0Zm0 61h1-1Zm3-1-2 2h-1l1-1h1-1 1v-1h1Zm-2 0v1-1Zm0-61Zm1-4v-1l1-1h-1l-1 2h1Zm0 65v-1 1Zm0-68 1 1-1-1Zm0 68h1-1Zm1-68h-1 1Zm-1 67h1-1Zm0-64h1-1Zm1-4c-1 0 0 0 0 0l1-1h-1v1c0-1 0 0 0 0Zm0 1v2-2Zm1-3-1-1 1 1Zm0-2v1l1-2h-1v1Zm0 73Zm0-69Zm0-4v-1 1Zm0 73v-1 1Zm0-3h1-1Zm1-1v1h-1l1-1Zm0-73v1-1Zm0 4v-1 1Zm1-6h-1v2l1-4v2Zm0 73h-1v1l1-1Zm0-75V7v1Zm0 77 1-2-1 2Zm2-3v1l1-2-1 1Z" class="cls-6"/><path d="M268 81h1l1 2-5 3h-1v-1c0 1 0 1 0 0l-1 1h1c1 1-1 0-1 1h-1v1-1c-2 1-2 2-3 1v1-1h-1v1h-2l1 1h-1v-1h-2v1l-6 1-1 2-4 7c-2 1-4 3-7 3-8-1-7-15-2-19v-2c0-9 12-8 16-2 1 2 1 5-1 7 7-1 13-3 19-6Zm-34 12-1 1 1 5 6-3 1-3 1-1-6-3-2 3Zm7-12-2 4-1 2 6 1c2-3 3-7 0-10l-3 3Zm9 9h-1v1l1-1Zm1 0h1-1Zm0-2 1 1-1-1Zm2 0h1-1Zm0 0Zm3 0h-2 2Zm5-1-3-1-1 1h4Zm0-1Zm1 0v1-1Zm1 0v-1 1c-1 0 0 0 0 0Z" class="cls-6"/><path d="M273 100h1l-3 1 4-1c-2 2-6 4-9 3l-4-3-1-6c0-5 2-10 6-15 4-4 8-6 13-5l2 2v5c-2 0-3-3-4-4-8 6-13 12-13 20l1 2c5-1 8-4 12-7l5-4c1 2-3 5-4 7l-2 2-3 3h-1Zm-5 2Zm6-3h1-1Zm1 1 1-1-1 1Zm4-5h-1Zm1-1-1 1v-1Zm0-1Zm1-1v1-1Zm43-11h1v2l-5 3v-1h-1v1c2 1 0 0 0 1h-1l-1 1v-1l-2 1v1l-1-1h-1v1h1-2l1 1h-1v-1h-2s0 1 0 0v1l-6 1-2 2-4 7c-1 1-3 3-6 3-8-1-8-15-2-19v-2c0-9 12-8 15-2 2 2 2 5 0 7l19-6Zm-34 12-1 1 1 5c2 0 4-2 5-3l2-3 1-1-7-3-1 3Zm6-12-1 4-2 2 7 1c1-3 3-7 0-10l-4 3Zm9 9v1l1-1h-1Zm2 0h1-1Zm0-2 1 1-1-1Zm2 0h1-1Zm0 0Zm3 0h-2 2Zm5-1-3-1-1 1h4Zm-1-1h1-1Zm2 0h-1v1l1-1Zm0 0v-1 1Z" class="cls-6"/><path d="m348 76-5 3-5 3c0 2-1 2-2 3-5 7-9 12-10 16-1 3-2 4-4 5-3-1-4-5-4-8l1-5 1-5 1-5 1-4c4 0 4 3 4 5l-1 6 10-12c3-3 12-7 15-1l-2-1Zm-6 0v-1h1-2c-6 4-12 10-16 17 5-7 10-13 16-16h1Zm-6 7h-1 1Zm2-2h-1v1l1-1Zm1-2-1 1 1-1Zm3-1v-1l-3 2 3-2Zm2-1h-1 1Zm0 0 1-1h-1v1Z" class="cls-6"/><path d="M386 33h1l-1 1c1 1-2 4-1 5h-1 1l-2 2 1-1v2h-1v3h-1l1 1h-1l-1 1h1l-1 1-1 5-1 1h1-1c1 2 0 5-2 5v-1l-1 1h2l-1 2s-1 0 0 0v2l-2 2-1 2v3l-1 2v1l-1 1s1 0 0 0v2h-1v1h-1c1 1 0 2-1 3v2l-2 1v1l1 5 3 6v-1c1 2 4 2 5 1 6-1 13-5 16-8l9-8c-1 6-3 9-6 10h1l-1 1h1l-1 1c-1-1-1 1-1 1l-2 2c-1-1-3 2-4 2v1l-8 3h-3c-6 0-9-4-12-11l-8 10-6 3c-2 0-4-1-4-3l-1 1-1-4c0-6 1-11 4-16 3-4 7-6 11-4 1 3 0 6-2 8h-1v-5h-2l-3 9-2 9c3-1 6-4 7-6l6-8V69l1-6v-1h1c3-22 9-42 18-58h5c5 1 3 9 2 12v-1l-1 2h1l-1 2v3l-1 2h1l-1 1v2l-1 1-1 3h1l-1 1v1Zm-26 55h1-1Zm3-3-2 2 2-2Zm0 0v-1 1Zm1-16v1-1c1 0 1 0 0 0Zm1-1h-1 1Zm0 5c0 1 0 0 0 0Zm0-7v-2 2Zm0 4v-1 1Zm1-2-1 1 1-1Zm-1-5c1 0 1 0 0 0Zm1 9s-1 0 0 0Zm0-10Zm0 5Zm0 3v1-1Zm0-5v-1 1Zm0 1v-1 1Zm0 2v1-1Zm0 18v1-1Zm0-19h1-1Zm0 1v-1 1Zm0 20Zm1-20v-3l-1 6v3l1-6Zm-1-13h1-1Zm1 2h-1 1Zm-1 1v1-1Zm0 4h1-1Zm1 1v1-1Zm0 2v-1 1Zm0-10Zm0-4v2-2Zm1 6h-1 1Zm0 3-1 5 1-5Zm-1-10h1-1Zm0 10h1-1Zm1 9v1-1Zm0-22v1-1Zm1 3v1-1h-1 1Zm-1 7Zm1 15-1 2 1-2Zm0 6-1 1 1-1Zm0 14h-1 1Zm12-71-3 6h1l-2 3-1 4c0 2-1 5-3 7h1l-1 1v1l-3 12h1l-2 5v4h-1v5l3-8h1l1-1h-1v-1h1l1-3a168 168 0 0 1 6-16c-1-1 1-4 1-5v-1h1l2-12 3-11V9l-3 5-3 7Zm-12 31-1 1 1-1Zm0 2-1 6c1-2 2-4 1-6Zm-1 26h1-1Zm1-33-1 2 1-2Zm0 36Zm0-39s1 0 0 0Zm0 6v-1 1Zm0 22h1v-2l-1 2Zm0-20c1 0 1 0 0 0Zm1-6h-1 1Zm0 7v1-1Zm0-11-1 1 1-1Zm0 3Zm0 3Zm0-1Zm0-1Zm0 6Zm0 17v1-1Zm0-27s1 0 0 0Zm0 1Zm0 7h1-1Zm0 1h1-1Zm0 16v-1 1Zm0 7h1-1Zm1-30h-1 1Zm0 11h-1 1Zm0-6Zm0 16q0 1 0 0Zm0 3Zm0-22Zm0-5v2-2Zm0 33v1-1Zm0-1Zm0-26v1-1Zm0-2Zm0 22c-1 0 0 0 0 0Zm0 5c1 0 1 0 0 0Zm0-31h1l-1-1v1Zm1 2v-1 1Zm0 2Zm0 1v-1 1Zm0 20Zm0-32v1-1Zm0 37v1-1Zm0-1v1-1Zm1-33h-1v1l1-1Zm-1 1Zm1 1-1 1h1v-1Zm0 2-1 2 1-2Zm-1-9h1-1Zm0 3 1-1h-1v1Zm1 27v2-2Zm0 7v-1 1Zm0-31v1-1Zm1-9-1 1 1-1Zm-1 38 1 1-1-1Zm1-31v1-1Zm0 2-1 1 1-1Zm0 23-1 1 1-1Zm0 9h-1 1Zm0-12Zm0 2v1-1Zm0-28c1 0 1 0 0 0Zm0 4v1-1Zm0-2c1 0 1 0 0 0Zm1-7h-1 1Zm0 7-1 1 1-1Zm0 25h-1 1Zm-1 6h1l-1-1v1Zm1 2v-2 2Zm0-11v2-2Zm0 7v1-1Zm0-37v1-1Zm0 27v1-1Zm1-30c-1 0 0 0 0 0Zm0 32v1-1Zm0-25Zm0 32Zm0-33h1v-1h-1v1Zm1 22h-1 1Zm0 2-1 2 1-2v-1 1Zm0-25v-1 1Zm0-7v-1 1Zm0 27v2-2Zm0 15Zm0-38Zm1 32h-1 1Zm0-5-1-1v1h1Zm0-4v-1l-1 1h1Zm0-26v1-1Zm0 4Zm0 30Zm0 1v1-1Zm0-6v-1 1Zm0 1c0-1 0-1 0 0Zm0 3s1 0 0 0Zm0-5v-1l1 1h-1Zm1-3-1 2 1-2Zm0-3v1-1Zm-1 9 1 1-1-1Zm2-1v-1h-1l1 1Zm-1-9v1-1Zm1 3h-1 1Zm-1-3 1-1-1 1Zm1 6v1-1Zm0-5v1-1Zm0-4v2-2Zm0 12Zm0-4Zm1-6h-1v1l1 1v-2Zm-1-3h1-1Zm1 3 1-2h-1l1-1 1-5-1 5-1 3Zm1-9-1 5c0-1 2-3 1-5Zm-1 14v-1 1Zm1-5Zm1-2c-1 0 0 0 0 0Zm0-10v2-2Zm1 1-1 2 1-2Zm-1-1 1-3-1 3Zm1 8v1-1Zm0-4Zm0-1Zm0-7 1-1-1 1Zm1 4h-1 1Zm0-6v-1 1c-1 0 0 0 0 0Zm1 1-1 4 1-4Zm0-7v5-5Zm0 7v-3l1-1v1l-1 3Zm0 7Zm0-14h1-1Zm1 11-1 1 1-1Zm0-12v-1 1Zm0-3v2-2Zm0 5Zm0 11Zm0-4c1 0 1 0 0 0Zm1-17-1 5 1-5Zm-1 84h1-1Zm1-77v1c0 1-1 0 0 0v-1Zm0 9h-1 1Zm0-11v2-2Zm0-7Zm0 1Zm0 13Zm1 72h-1 1Zm-1-81 1 1-1-1Zm1-2Zm0 6Zm0-3h1-1Zm2 79c-1-1-2 0-2 1l2-1Zm0-2-1 1 1-1Zm1 0c0-1 0-1 0 0Zm1-1Zm2-1-1 1 1-1Zm2 0v1-1Zm2-5-1 1 1-1Zm-1 2s1 0 0 0Zm2-3-1 1 1-1Z" class="cls-6"/></g></svg>